# xmcd
#
# Track frame offsets:
#	180
#	13680
#	28715
#	41580
#	56465
#	73515
#	90405
#	106755
#	118590
#	132765
#
# Disc length: 1942 seconds
# Revision: 1
# Processed by: cddbd v1.5.2PL0 Copyright (c) Steve Scherf et al.
# Submitted via: dBpowerAMP V12.0
#
DISCID=7707940a
DTITLE=Michael Twitty - Debbie Don't Do Dallas Anymore
DYEAR=2009
DGENRE=Country
TTITLE0=I Picked a San Antonio Rose
TTITLE1=Between an Old Memory and Me
TTITLE2=Debbie Don't Do Dallas Anymore
TTITLE3=Best Part of Lovin'
TTITLE4=Kick the Habit
TTITLE5=Too Late for the Show
TTITLE6=What I Already Know
TTITLE7=She Stays in the Name of Love
TTITLE8=Back in My Roarin' 20's
TTITLE9=You're the Best I Never Had
EXTD=
EXTT0=
EXTT1=
EXTT2=
EXTT3=
EXTT4=
EXTT5=
EXTT6=
EXTT7=
EXTT8=
EXTT9=
PLAYORDER=
